<?xml version="1.0" encoding="utf-8"?>
<!-- Generator: Adobe Illustrator 26.2.1, SVG Export Plug-In . SVG Version: 6.00 Build 0)  -->
<svg version="1.1" id="Layer_1" xmlns="http://www.w3.org/2000/svg" xmlns:xlink="http://www.w3.org/1999/xlink" x="0px" y="0px"
	 viewBox="0 0 1440 440" style="enable-background:new 0 0 1440 440;" xml:space="preserve">
<style type="text/css">
	.st0{fill:#F2F2F2;}
</style>
<path class="st0" d="M75.5,316.8h-7.4L0,154.5h30.9l42,111.3l42.9-111.3h29.5L75.5,316.8z"/>
<polygon class="st0" points="196.9,316.6 196.9,181.4 175,181.4 175,157.7 225,157.7 225,316.6 "/>
<g>
	<path class="st0" d="M199.9,91.8c4.1,0,7.2,1.3,10,4.1c2.9,2.9,4.1,5.9,4.1,9.8c0,4.1-1.3,7.2-4.1,10c-2.9,2.9-6,4.1-10,4.1
		c-3.9,0-6.9-1.3-9.8-4.1c-2.9-2.9-4.1-6-4.1-10c0-4.1,1.2-7.1,4-9.9C192.8,93,195.8,91.8,199.9,91.8 M199.9,79.2
		c-7.4,0-13.7,2.6-18.8,7.7s-7.7,11.4-7.7,18.8s2.6,13.7,7.8,18.9s11.4,7.8,18.7,7.8c7.4,0,13.7-2.6,18.9-7.8s7.8-11.5,7.8-18.9
		c0-7.2-2.6-13.5-7.8-18.7C213.6,81.8,207.3,79.2,199.9,79.2L199.9,79.2z"/>
</g>
<g>
	<path class="st0" d="M1422.5,281.7c4.8,0,9,1.7,12.4,5.1s5.1,7.5,5.1,12.2c0,4.8-1.7,9-5.1,12.4s-7.5,5.1-12.4,5.1
		c-4.7,0-8.8-1.7-12.2-5.1c-3.4-3.4-5.1-7.5-5.1-12.4c0-4.8,1.7-8.9,5-12.3C1413.5,283.4,1417.6,281.7,1422.5,281.7z"/>
	<path class="st0" d="M1422.5,281.7c-4.8,0-8.9,1.7-12.3,5c-3.4,3.4-5,7.5-5,12.3s1.7,9,5.1,12.4s7.5,5.1,12.2,5.1
		c4.8,0,9-1.7,12.4-5.1s5.1-7.5,5.1-12.4c0-4.7-1.7-8.8-5.1-12.2S1427.3,281.7,1422.5,281.7L1422.5,281.7z"/>
</g>
<path class="st0" d="M382.2,316.6v-92.4c0-16.9-2.5-28.8-7.6-35.5c-5.1-6.8-13.6-10.2-25.6-10.2c-6.4,0-13.2,1.9-20.2,5.8
	c-7,3.9-12.4,8.6-16.2,14.2v118.1h-28.2V157.7h19.3l8.9,20.5c9.3-15.6,24.5-23.4,45.6-23.4c34.8,0,52.2,21.2,52.2,63.5v98.4h-28.2
	V316.6z"/>
<path class="st0" d="M586.4,167.8l-14,19.8c-2.9-2.9-7.9-5.6-15.2-8.2c-7.3-2.6-14.4-3.9-21.4-3.9c-15.3-0.1-27.5,5.3-36.6,16
	c-9,10.7-13.6,25.4-13.7,44.1c-0.1,18.6,4.5,32.8,13.6,42.6c9.2,9.8,21.9,14.7,38.2,14.8c12.7,0.1,25.4-4.8,38.3-14.5l11,23.8
	c-15.2,9.7-33.9,14.6-56.3,14.5c-21.7-0.1-39.5-7.4-53.6-22s-21.1-34.3-21-59.1c0.1-25.3,7.5-45.6,22.3-60.9
	c14.7-15.3,34.9-22.9,60.4-22.7c8.2,0,17.1,1.8,26.7,5.3C574.8,160.6,581.8,164.2,586.4,167.8z"/>
<path class="st0" d="M763.1,210.7l-105.9,43.8c7.1,17.2,17.3,28.4,30.5,33.8c11.6,4.6,24,4.2,37.1-1.2c14.9-6.2,25.5-15.6,31.9-28.4
	l18.7,14.2c-2.4,5.7-7.1,11.7-14.2,18.1c-8.8,8.2-19.6,14.9-32.4,20.2c-18.5,7.6-36.7,7.8-54.8,0.7c-20.1-7.9-34.9-23.5-44.5-46.8
	c-10-24.2-10.7-46.7-2-67.4c7.8-18.5,20.6-31.5,38.7-38.9c20.9-8.7,39.8-9.5,56.5-2.7c16.2,6.6,28.2,19.2,35.9,38
	C761,199.7,762.5,205.3,763.1,210.7z M676.5,180c-11.6,4.8-19.8,12.6-24.6,23.3c-4.6,10.2-5.1,20.9-1.8,31.9l81.3-33.6
	c-4.3-10.5-11.3-17.9-20.8-22.2C700.3,174.7,688.9,174.9,676.5,180z"/>
<path class="st0" d="M943.3,316.8h-7.4l-68.1-162.3h30.9l42,111.3l42.9-111.3h29.5L943.3,316.8z"/>
<path class="st0" d="M1138.2,295.4c-11.3,14.2-28.5,21.2-51.8,21.2c-12.5,0-23.3-4.5-32.4-13.6c-9.2-9.1-13.7-20.3-13.7-33.8
	c0-16.1,7-29.7,21.1-40.9c14.1-11.1,32.1-16.7,53.9-16.7c5.9,0,12.7,1.3,20.2,3.9c0-25.7-11.5-38.6-34.4-38.6
	c-17.6,0-31.2,4.8-40.6,14.2l-11.9-23.6c5.3-4.4,12.7-8.1,22.2-11.2c9.4-3.1,18.5-4.7,27.1-4.7c23,0,39.8,5.2,50.2,15.7
	s15.7,27.2,15.7,50v57c0,13.9,4.2,23.2,12.5,27.9v14.1c-11.5,0-20.1-1.6-25.7-4.9C1144.8,308.3,1140.7,302.9,1138.2,295.4z
	 M1135.6,235.6c-8.9-2-15.1-3-18.7-3c-14.2,0-25.9,3.7-34.9,11s-13.5,16-13.5,26c0,16.5,9.7,24.8,29.2,24.8
	c14.2,0,26.9-6.8,37.8-20.3L1135.6,235.6L1135.6,235.6z"/>
<path class="st0" d="M1325.6,316.6v-92.4c0-16.9-2.5-28.8-7.6-35.5c-5.1-6.8-13.6-10.2-25.6-10.2c-6.4,0-13.2,1.9-20.2,5.8
	c-7,3.9-12.4,8.6-16.2,14.2v118.1h-28.2V157.7h19.3l8.9,20.5c9.3-15.6,24.5-23.4,45.6-23.4c34.8,0,52.2,21.2,52.2,63.5v98.4h-28.2
	V316.6z"/>
</svg>
